<svg width="20" height="16" viewBox="0 0 20 16" fill="none" xmlns="http://www.w3.org/2000/svg">
<path id="Vector" d="M20 3C20 1.34315 18.6569 0 17 0H3C1.34315 0 0 1.34315 0 3V13C0 14.6569 1.34315 16 3 16H17C18.6569 16 20 14.6569 20 13V3ZM18 3.53C18 3.82238 17.8494 4.09414 17.6014 4.2491L11.59 8.00625C10.6172 8.61426 9.38281 8.61426 8.41 8.00625L2.39856 4.2491C2.15062 4.09414 2 3.82238 2 3.53C2 2.86395 2.73263 2.45789 3.29744 2.8109L8.41 6.00625C9.38281 6.61426 10.6172 6.61426 11.59 6.00625L16.7026 2.8109C17.2674 2.45789 18 2.86395 18 3.53Z" fill="white"/>
</svg>
